<?xml version="1.0" encoding="UTF-8"?>
<!DOCTYPE svg PUBLIC "-//W3C//DTD SVG 1.0//EN" "http://www.w3.org/TR/2001/REC-SVG-20010904/DTD/svg10.dtd">
<!-- Creator: CorelDRAW 2020 (64-Bit) -->
<svg xmlns="http://www.w3.org/2000/svg" xml:space="preserve" width="32px" height="32px" version="1.0" style="shape-rendering:geometricPrecision; text-rendering:geometricPrecision; image-rendering:optimizeQuality; fill-rule:evenodd; clip-rule:evenodd"
viewBox="0 0 3200000 3200000"
 xmlns:xlink="http://www.w3.org/1999/xlink"
 xmlns:xodm="http://www.corel.com/coreldraw/odm/2003">
 <defs>
  <style type="text/css">
   <![CDATA[
    .fil0 {fill:#1A1A1A}
   ]]>
  </style>
 </defs>
 <g id="Layer_x0020_1">
  <metadata id="CorelCorpID_0Corel-Layer"/>
  <path class="fil0" d="M1898000 602000l-599000 0c100000,-201000 201000,-402000 301000,-602000 100000,201000 201000,401000 301000,602000l-3000 0zm-704000 834000l-141000 282000 549000 342000 546000 -341000 -376000 -753000 -344000 0 -58000 118000 -312000 0c63000,-127000 126000,-253000 190000,-379000 234000,-1000 470000,0 704000,0 185000,366000 367000,733000 550000,1100000 -300000,187000 -600000,376000 -901000,562000 -301000,-188000 -602000,-375000 -903000,-563000 62000,-123000 123000,-247000 185000,-371000l312000 0 -1000 3000zm-641000 1281000c-80000,161000 -161000,322000 -241000,483000l-312000 0c217000,-435000 435000,-869000 652000,-1304000 316000,197000 632000,394000 948000,591000 316000,-197000 633000,-393000 948000,-591000 217000,435000 435000,869000 652000,1304000l-311000 0c-81000,-162000 -162000,-323000 -243000,-485000l0 0 0 -1000 -218000 -436000c-277000,172000 -552000,344000 -829000,516000 -276000,-171000 -551000,-343000 -827000,-515000l-219000 438000z"/>
 </g>
</svg>
